HIERARCHY
ROOT Hips
{
	OFFSET 0.000000 0.000000 0.000000 
	CHANNELS 6 Xposition Yposition Zposition Yrotation Zrotation Xrotation 
	JOINT Lumbar
	{
		OFFSET 0.000000 0.000000 0.000000 
		CHANNELS 3 Zrotation Xrotation Yrotation
		JOINT Neck
		{
			OFFSET 0.000000 0.445665 0.000000 
			CHANNELS 3 Zrotation Xrotation Yrotation
			End Site
			{
				OFFSET 0.000000 0.227535 0.000000 
			}
		}
		JOINT RightShoulder
		{
			OFFSET 0.019635 0.377685 0.194865 
			CHANNELS 3 Zrotation Xrotation Yrotation
			JOINT RightElbow
			{
				OFFSET 0.000000 -0.243375 0.000000 
				CHANNELS 2 Zrotation Yrotation
				JOINT RightWrist
				{
					OFFSET 0.000000 -0.264825 0.000000 
					CHANNELS 2 Zrotation Xrotation
					End Site
					{
						OFFSET 0.006600 -0.176220 0.000990 
					}
				}
			}
		}
		JOINT LeftShoulder
		{
			OFFSET 0.019635 0.377685 -0.194865 
			CHANNELS 3 Zrotation Xrotation Yrotation
			JOINT LeftElbow
			{
				OFFSET 0.000000 -0.243375 0.000000 
				CHANNELS 2 Zrotation Yrotation
				JOINT LeftWrist
				{
					OFFSET 0.000000 -0.264825 0.000000 
					CHANNELS 2 Zrotation Xrotation
					End Site
					{
						OFFSET 0.006600 -0.176220 -0.000990 
					}
				}
			}
		}
	}
	JOINT RightHip
	{
		OFFSET 0.052140 -0.069960 0.075570 
		CHANNELS 3 Zrotation Xrotation Yrotation
		JOINT RightKnee
		{
			OFFSET 0.000000 -0.402270 0.000000 
			CHANNELS 1 Zrotation
			JOINT RightAnkle
			{
				OFFSET 0.000000 -0.404085 0.000000 
				CHANNELS 3 Zrotation Xrotation Yrotation
				End Site
				{
					OFFSET 0.204105 -0.089430 0.008415 
				}
			}
		}
	}
	JOINT LeftHip
	{
		OFFSET 0.052140 -0.069960 -0.075570 
		CHANNELS 3 Zrotation Xrotation Yrotation
		JOINT LeftKnee
		{
			OFFSET 0.000000 -0.402270 0.000000 
			CHANNELS 1 Zrotation
			JOINT LeftAnkle
			{
				OFFSET 0.000000 -0.404085 0.000000 
				CHANNELS 3 Zrotation Xrotation Yrotation
				End Site
				{
					OFFSET 0.204105 -0.089430 -0.008415 
				}
			}
		}
	}
}
MOTION
Frames: 22
Frame Time: 0.02
0.35176 0.81883 -0.44447 206.59332 0 -4.06413 13.55261 18.08585 8.84291 -35.05208 -0.92965 10.24481 101.37475 -6.87713 57.50244 73.81962 138.24928 -65.28981 -10.22739 69.25137 47.78485 -12.30539 96.54891 -127.24062 -78.2112 11.13228 23.35361 2.73538 -20.28694 -59.85269 20.52864 -26.48317 -11.22494 35.12406 32.42005 28.67069 -37.45598 7.82696 3.00483 1.5948
0.35067 0.81867 -0.4437 206.62625 0 -4.01333 13.77505 18.00947 9.0228 -34.38538 -1.32379 9.82635 100.71801 -6.72263 57.24399 73.81167 138.28644 -65.49842 -10.24147 69.34985 48.33532 -13.06713 96.63948 -127.397 -78.06661 10.66713 23.29502 2.69627 -20.23274 -59.91256 20.53726 -26.57178 -11.29971 35.11651 32.41616 28.69746 -37.59819 7.79258 2.93751 1.49261
0.34951 0.81853 -0.44301 206.68644 0 -3.95793 14.02967 17.88455 9.24327 -33.86814 -1.59408 9.52583 100.17488 -6.66572 57.07361 73.82156 138.44239 -65.65982 -10.28855 69.51037 48.64839 -13.85745 96.69632 -127.30073 -77.94913 10.53951 23.22856 2.65698 -20.19173 -59.96877 20.54373 -26.65952 -11.38484 35.10361 32.40453 28.7505 -37.72276 7.7595 2.83664 1.31608
0.34838 0.81837 -0.44229 206.73498 0 -3.90597 14.26758 17.78075 9.44602 -33.28492 -1.91553 9.17664 99.58 -6.5687 56.8662 73.8337 138.54165 -65.83888 -10.3195 69.63698 49.05919 -14.62784 96.7724 -127.32915 -77.82046 10.256 23.16584 2.61956 -20.14526 -60.02505 20.55094 -26.74685 -11.46562 35.09422 32.39642 28.78944 -37.85356 7.72601 2.75373 1.17685
0.34722 0.81821 -0.44153 206.7805 0 -3.84885 14.51572 17.68042 9.64497 -32.69819 -2.25932 8.8149 98.98841 -6.45814 56.64723 73.80421 138.65549 -66.0303 -10.35624 69.79182 49.50399 -15.43046 96.82869 -127.32602 -77.68584 9.97587 23.10183 2.57551 -20.09646 -60.08733 20.55905 -26.8374 -11.54508 35.08047 32.38883 28.83675 -37.99223 7.69227 2.6601 1.02417
0.34613 0.81808 -0.44087 206.83896 0 -3.80129 14.74947 17.56151 9.86127 -32.15373 -2.52693 8.50485 98.41715 -6.39772 56.47246 73.86481 138.76553 -66.18605 -10.38831 69.90305 49.82432 -16.17178 96.91881 -127.3239 -77.57019 9.77157 23.03886 2.54487 -20.05598 -60.13644 20.5648 -26.92098 -11.62957 35.07472 32.37784 28.87216 -38.11003 7.65909 2.5807 0.88163
0.34522 0.818 -0.44047 206.92418 0 -3.77981 14.93769 17.40297 10.12138 -31.67394 -2.61366 8.30007 97.85838 -6.44767 56.40281 74.17175 138.841 -66.25612 -10.4001 69.85335 49.86722 -16.73472 97.11922 -127.39625 -77.50406 9.69484 22.98072 2.55122 -20.0314 -60.15127 20.5647 -26.98714 -11.72688 35.08935 32.3622 28.87986 -38.17652 7.62806 2.54705 0.78158
0.34439 0.81795 -0.44017 207.02206 0 -3.76824 15.10965 17.22733 10.39659 -31.23353 -2.6279 8.14366 97.31844 -6.54551 56.37361 74.56887 138.90706 -66.29211 -10.40574 69.76138 49.79277 -17.23483 97.35433 -127.47516 -77.45561 9.68372 22.92402 2.57092 -20.01548 -60.15289 20.56226 -27.04605 -11.82873 35.11287 32.34255 28.87228 -38.22218 7.59729 2.52907 0.69491
0.34354 0.81789 -0.43983 207.11538 0 -3.753 15.28769 17.05992 10.66127 -30.78441 -2.67596 7.96926 96.77977 -6.62262 56.32283 74.92217 138.97399 -66.34355 -10.41365 69.70455 49.76827 -17.76477 97.56783 -127.54334 -77.39683 9.64304 22.86663 2.58447 -19.99798 -60.15982 20.56084 -27.10727 -11.92739 35.13402 32.32315 28.86501 -38.27614 7.56578 2.50493 0.60408
0.34264 0.81783 -0.43946 207.20387 0 -3.73423 15.4729 16.88961 10.94295 -30.30195 -2.71663 7.78177 96.20391 -6.69604 56.28881 75.28494 139.0602 -66.39389 -10.42512 69.58299 49.75015 -18.29078 97.80261 -127.63572 -77.34867 9.6127 22.80889 2.59853 -19.97073 -60.16937 20.55961 -27.17262 -12.03068 35.14726 32.31122 28.88872 -38.33465 7.53705 2.47561 0.50193
0.34185 0.81778 -0.43917 207.30602 0 -3.72507 15.63825 16.721 11.19216 -29.89619 -2.75634 7.63212 95.70816 -6.79078 56.22811 75.65314 139.10156 -66.4385 -10.42706 69.58508 49.6933 -18.80916 98.00445 -127.68232 -77.28221 9.57229 22.75258 2.61452 -19.96602 -60.1706 20.55736 -27.22767 -12.12586 35.17998 32.2815 28.84133 -38.37865 7.50245 2.46119 0.42832
0.34128 0.81779 -0.43905 207.43466 0 -3.74143 15.7578 16.56914 11.34904 -29.69273 -2.81827 7.56819 95.43133 -6.90155 56.08491 75.98042 139.02813 -66.48083 -10.40567 69.94182 49.56638 -19.32661 98.08469 -127.60339 -77.16084 9.48472 22.69782 2.63422 -20.01847 -60.15015 20.55345 -27.25583 -12.19265 35.25753 32.21539 28.62322 -38.39052 7.45278 2.48448 0.42316
0.34082 0.81783 -0.43901 207.5781 0 -3.767 15.85666 16.41832 11.47236 -29.56425 -2.88122 7.5411 95.23348 -7.03748 55.91255 76.31643 138.90785 -66.51788 -10.3744 70.42401 49.40471 -19.83791 98.13536 -127.47887 -77.02013 9.38372 22.64489 2.6552 -20.0939 -60.12213 20.54847 -27.27386 -12.25202 35.35579 32.12938 28.32969 -38.38808 7.39696 2.52229 0.4477
0.34032 0.81785 -0.43894 207.71982 0 -3.78731 15.9617 16.26217 11.61014 -29.40067 -2.93941 7.50135 94.99731 -7.18171 55.75273 76.67036 138.80418 -66.55417 -10.34653 70.84604 49.25418 -20.34825 98.21367 -127.37496 -76.88842 9.28936 22.59248 2.67435 -20.16053 -60.09889 20.54361 -27.29673 -12.31793 35.44889 32.04475 28.05651 -38.39043 7.34317 2.55336 0.46395
0.33978 0.81788 -0.43884 207.8404 0 -3.812 16.08042 16.12605 11.75172 -29.24314 -3.01234 7.44712 94.77197 -7.24411 55.5985 76.93446 138.72071 -66.60246 -10.3232 71.27824 49.11703 -20.87064 98.23132 -127.2719 -76.75727 9.1952 22.53431 2.69876 -20.22008 -60.06966 20.54026 -27.31859 -12.37053 35.52387 31.9922 27.84245 -38.39929 7.29268 2.58561 0.45963
0.33936 0.81789 -0.43883 208.00892 0 -3.83022 16.16515 15.94849 11.87733 -29.08994 -3.05678 7.42992 94.54278 -7.48261 55.42375 77.38732 138.58326 -66.62509 -10.28798 71.72171 48.94784 -21.36931 98.37022 -127.15578 -76.61909 9.09657 22.48865 2.71296 -20.30029 -60.05112 20.53347 -27.33992 -12.44915 35.642 31.86831 27.48648 -38.39144 7.23378 2.61857 0.50378
0.33924 0.81782 -0.43906 208.30122 0 -3.8232 16.16768 15.6581 11.96601 -28.93301 -3.01405 7.51653 94.2819 -8.19778 55.21161 78.35186 138.31584 -66.57733 -10.22378 72.14761 48.67814 -21.78659 98.83025 -127.01871 -76.47529 8.9877 22.47624 2.6934 -20.42701 -60.06526 20.51802 -27.36513 -12.60028 35.86874 31.55132 26.76689 -38.34124 7.15383 2.65079 0.68579
0.33924 0.81772 -0.43939 208.6419 0 -3.81025 16.13549 15.32574 12.03989 -28.77726 -2.94453 7.63712 94.01493 -9.08931 54.97752 79.50646 137.99441 -66.50422 -10.14776 72.58409 48.38191 -22.1835 99.41666 -126.86939 -76.32346 8.87469 22.47648 2.66446 -20.57455 -60.09017 20.49906 -27.38965 -12.77788 36.13897 31.1637 25.90595 -38.27471 7.06555 2.68303 0.91353
0.3392 0.81764 -0.43969 208.96393 0 -3.80328 16.11501 15.01139 12.12118 -28.61882 -2.89304 7.73475 93.75136 -9.90255 54.74507 80.57912 137.69261 -66.44347 -10.07622 73.02772 48.11186 -22.60183 99.95926 -126.72296 -76.16908 8.76392 22.47148 2.64316 -20.71579 -60.10941 20.48132 -27.41269 -12.94435 36.39315 30.80872 25.10257 -38.21563 6.98058 2.71459 1.11274
0.33913 0.81757 -0.43992 209.27336 0 -3.7827 16.11121 14.7014 12.19844 -28.47153 -2.81682 7.86463 93.48663 -10.7104 54.54608 81.6356 137.40953 -66.37912 -10.00798 73.42518 47.78069 -22.96969 100.44499 -126.58594 -76.03953 8.65103 22.46447 2.60754 -20.84464 -60.13188 20.46507 -27.44301 -13.1075 36.63329 30.4496 24.32218 -38.15615 6.89718 2.74938 1.3452
0.33913 0.81745 -0.44032 209.6191 0 -3.78904 16.0644 14.37254 12.28098 -28.30104 -2.78577 7.93594 93.22342 -11.56913 54.2735 82.7681 137.07574 -66.31614 -9.93033 73.91975 47.57125 -23.43648 101.07747 -126.42741 -75.85744 8.54198 22.46452 2.59965 -21.00372 -60.14997 20.44497 -27.45807 -13.28303 36.91158 30.08406 23.46453 -38.09354 6.80888 2.77743 1.51951
0.33931 0.81721 -0.44116 210.06355 0 -3.87036 15.91015 14.0005 12.38217 -28.05983 -2.88573 7.82802 92.95198 -12.54076 53.79539 84.08665 136.61153 -66.26535 -9.8286 74.67872 47.70235 -24.19394 102.10178 -126.20897 -75.52532 8.44253 22.48174 2.66949 -21.24302 -60.15595 20.41443 -27.43164 -13.49394 37.29409 29.70559 22.40148 -38.02835 6.70701 2.78493 1.51616
